<svg width="46" height="23" viewBox="0 0 46 23" fill="none" xmlns="http://www.w3.org/2000/svg">
<path d="M16.2597 18.2451H22.8116V22.3257H10.7998L16.2597 18.2451ZM0.0237299 11.7795C0.0237299 10.3235 0.301514 8.94414 0.857083 7.64142C1.41265 6.33871 2.17895 5.18926 3.15599 4.19307C4.15218 3.17772 5.30163 2.38268 6.60435 1.80795C7.90706 1.23323 9.30556 0.945863 10.7998 0.945863C12.275 0.945863 13.6639 1.23323 14.9666 1.80795C16.2693 2.38268 17.4188 3.17772 18.415 4.19307C19.4303 5.18926 20.2158 6.33871 20.7714 7.64142C21.3461 8.94414 21.6334 10.3235 21.6334 11.7795C21.6334 13.2737 21.3461 14.6722 20.7714 15.975C20.2158 17.2777 19.4303 18.4271 18.415 19.4233C17.4188 20.4004 16.2693 21.1667 14.9666 21.7222C13.6639 22.2778 12.275 22.5556 10.7998 22.5556C9.30556 22.5556 7.90706 22.2778 6.60435 21.7222C5.30163 21.1667 4.15218 20.4004 3.15599 19.4233C2.17895 18.4271 1.41265 17.2777 0.857083 15.975C0.301514 14.6722 0.0237299 13.2737 0.0237299 11.7795ZM4.33418 11.7795C4.33418 12.699 4.49702 13.5707 4.8227 14.3945C5.16753 15.1991 5.63689 15.9175 6.23077 16.5497C6.84382 17.1627 7.54307 17.6417 8.32853 17.9865C9.13314 18.3313 10.0048 18.5038 10.9435 18.5038C11.8439 18.5038 12.6773 18.3313 13.4436 17.9865C14.229 17.6417 14.9091 17.1627 15.4839 16.5497C16.0586 15.9366 16.5088 15.2278 16.8345 14.4232C17.1602 13.5994 17.323 12.7182 17.323 11.7795C17.323 10.8599 17.1506 9.9978 16.8057 9.19319C16.4801 8.36941 16.0203 7.651 15.4264 7.03796C14.8517 6.42492 14.1716 5.94598 13.3861 5.60115C12.6007 5.25631 11.7481 5.08389 10.8286 5.08389C9.90902 5.08389 9.05651 5.25631 8.27105 5.60115C7.48559 5.94598 6.79592 6.42492 6.20204 7.03796C5.60815 7.651 5.14837 8.36941 4.8227 9.19319C4.49702 9.9978 4.33418 10.8599 4.33418 11.7795ZM26.018 22.3257L35.5584 0.3424H35.7883L45.3288 22.3257H40.5011L34.409 6.86554L37.4263 4.79653L30.1273 22.3257H26.018ZM32.5411 14.6818H38.8918L40.3574 18.1877H31.248L32.5411 14.6818Z" fill="#8F887C"/>
</svg>
